<?xml version="1.0" encoding="UTF-8"?>
<svg xmlns="http://www.w3.org/2000/svg" xmlns:xlink="http://www.w3.org/1999/xlink" version="1.1" id="Capa_1" x="0px" y="0px" viewBox="0 0 512 512" style="enable-background:new 0 0 512 512;" xml:space="preserve" width="512" height="512">
<g>
	<path style="fill:none;stroke:#000000;stroke-width:15;stroke-linecap:round;stroke-linejoin:round;stroke-miterlimit:10;" d="&#10;&#9;&#9;M153.3,504.5h281.2c38.66,0,70-31.34,70-70v-357c0-38.66-31.34-70-70-70h-357c-38.66,0-70,31.34-70,70v357c0,38.66,31.34,70,70,70&#10;&#9;&#9;h40.74"/>
	<path style="fill:none;stroke:#000000;stroke-width:15;stroke-linecap:round;stroke-linejoin:round;stroke-miterlimit:10;" d="&#10;&#9;&#9;M454.5,210.79V434.5c0,11.05-8.95,20-20,20h-357c-11.05,0-20-8.95-20-20v-357c0-11.05,8.95-20,20-20h357c11.05,0,20,8.95,20,20&#10;&#9;&#9;v98.23"/>
	<g>
		<path style="fill:none;stroke:#000000;stroke-width:15;stroke-linecap:round;stroke-linejoin:round;stroke-miterlimit:10;" d="&#10;&#9;&#9;&#9;M239.55,186.44l36.01-36.01c1.87-1.88,4.41-2.93,7.07-2.93h47.42c4.46,0,6.69,5.39,3.54,8.54L233.52,256.11l99.84,99.85&#10;&#9;&#9;&#9;c3.15,3.15,0.92,8.54-3.54,8.54H282.4c-2.65,0-5.2-1.05-7.07-2.93l-98.38-98.39c-3.91-3.9-3.91-10.24,0-14.14l37.85-37.85"/>
	</g>
</g>















</svg>
