<svg id="Capa_1" enable-background="new 0 0 512 512" height="512" viewBox="0 0 512 512" width="512" xmlns="http://www.w3.org/2000/svg"><g><g><path d="m217.309 367.42h-25.309c-4.142 0-7.5 3.358-7.5 7.5s3.358 7.5 7.5 7.5h25.309c4.142 0 7.5-3.358 7.5-7.5s-3.358-7.5-7.5-7.5z"/><path d="m55.999 382.42h114.001c4.142 0 7.5-3.358 7.5-7.5s-3.358-7.5-7.5-7.5h-114.001c-4.142 0-7.5 3.358-7.5 7.5s3.357 7.5 7.5 7.5z"/><path d="m224.809 402.783c0-4.142-3.358-7.5-7.5-7.5h-106.309c-4.142 0-7.5 3.358-7.5 7.5s3.358 7.5 7.5 7.5h106.309c4.142 0 7.5-3.358 7.5-7.5z"/><path d="m55.999 410.283h33.001c4.142 0 7.5-3.358 7.5-7.5s-3.358-7.5-7.5-7.5h-33.001c-4.142 0-7.5 3.358-7.5 7.5s3.357 7.5 7.5 7.5z"/><path d="m55.999 438.145h85.788c4.142 0 7.5-3.358 7.5-7.5s-3.358-7.5-7.5-7.5h-85.788c-4.142 0-7.5 3.358-7.5 7.5s3.357 7.5 7.5 7.5z"/><path d="m180.605 238.239h-56.683v-44.271h56.683c4.142 0 7.5-3.358 7.5-7.5s-3.358-7.5-7.5-7.5h-64.183c-4.142 0-7.5 3.358-7.5 7.5v105.536c0 4.142 3.358 7.5 7.5 7.5s7.5-3.358 7.5-7.5v-38.765h56.683c4.142 0 7.5-3.358 7.5-7.5s-3.358-7.5-7.5-7.5z"/><path d="m272.213 299.504c4.142 0 7.5-3.358 7.5-7.5v-80.046c0-18.19-13.427-32.99-29.932-32.99h-19.319c-16.504 0-29.932 14.799-29.932 32.99v80.046c0 4.142 3.358 7.5 7.5 7.5s7.5-3.358 7.5-7.5v-28.537h49.183v28.537c0 4.142 3.358 7.5 7.5 7.5zm-56.682-51.037v-36.51c0-9.919 6.698-17.99 14.932-17.99h19.319c8.233 0 14.932 8.07 14.932 17.99v36.51z"/><path d="m371.322 218.559c0-21.831-17.761-39.591-39.591-39.591s-39.591 17.761-39.591 39.591v41.354c0 21.831 17.761 39.591 39.591 39.591 8.738 0 16.82-2.851 23.376-7.664l3.453 4.641c1.472 1.979 3.733 3.024 6.023 3.024 1.556 0 3.126-.483 4.471-1.483 3.323-2.473 4.013-7.171 1.541-10.494l-5.137-6.906c3.716-6.029 5.865-13.122 5.865-20.709v-41.354zm-30.914 28.392c-2.472-3.323-7.17-4.012-10.494-1.541-3.323 2.473-4.013 7.171-1.541 10.494l17.784 23.906c-4.056 2.949-9.04 4.694-14.427 4.694-13.56 0-24.591-11.032-24.591-24.591v-41.354c0-13.56 11.032-24.591 24.591-24.591s24.591 11.032 24.591 24.591v41.354c0 2.447-.364 4.809-1.033 7.041z"/><path d="m483.396 0h-216.099c-9.649 0-17.5 7.851-17.5 17.5v86.835h-68.797c-4.142 0-7.5 3.358-7.5 7.5s3.358 7.5 7.5 7.5h68.797v29.503c0 9.649 7.851 17.5 17.5 17.5h90.703c4.142 0 7.5-3.358 7.5-7.5s-3.358-7.5-7.5-7.5h-90.703c-1.378 0-2.5-1.122-2.5-2.5v-131.338c0-1.378 1.122-2.5 2.5-2.5h216.099c1.378 0 2.5 1.122 2.5 2.5v131.338c0 1.378-1.122 2.5-2.5 2.5h-18.29c-6.932 0-12.572 5.64-12.572 12.572v15.315l-24.206-24.205c-2.375-2.375-5.532-3.683-8.89-3.683h-26.438c-4.142 0-7.5 3.358-7.5 7.5s3.358 7.5 7.5 7.5h25.433l4.399 4.399v150.208c0 9.649-7.851 17.5-17.5 17.5h-33.053c-9.729 0-17.644 7.915-17.644 17.644v36.77l-41.98-48.338c-3.353-3.861-8.208-6.076-13.322-6.076h-223.666c-9.649 0-17.5-7.851-17.5-17.5v-184.11c0-9.649 7.851-17.5 17.5-17.5h70.333c4.142 0 7.5-3.358 7.5-7.5s-3.358-7.5-7.5-7.5h-70.333c-17.92 0-32.5 14.58-32.5 32.5v160.196h-14.563c-9.649 0-17.5 7.851-17.5 17.5v148.642c0 9.649 7.851 17.5 17.5 17.5h15.862v18.75c0 5.103 3.046 9.662 7.761 11.615 1.565.648 3.202.963 4.824.963 3.265 0 6.466-1.278 8.876-3.688l27.639-27.639h151.137c9.649 0 17.5-7.851 17.5-17.5v-35.168c0-4.142-3.358-7.5-7.5-7.5s-7.5 3.358-7.5 7.5v35.168c0 1.378-1.122 2.5-2.5 2.5h-152.142c-3.358 0-6.515 1.308-8.89 3.682l-24.205 24.205v-15.316c0-6.932-5.64-12.572-12.572-12.572h-18.29c-1.378 0-2.5-1.122-2.5-2.5v-148.642c0-1.378 1.122-2.5 2.5-2.5h14.563v8.916c0 17.92 14.58 32.5 32.5 32.5h171.536v39.558c0 4.142 3.358 7.5 7.5 7.5s7.5-3.358 7.5-7.5v-39.558h37.129c.766 0 1.494.332 1.996.911l46.242 53.245c2.452 2.823 5.888 4.345 9.442 4.344 1.484 0 2.989-.265 4.45-.811 4.964-1.855 8.172-6.478 8.172-11.777v-43.268c0-1.458 1.186-2.644 2.644-2.644h33.053c17.92 0 32.5-14.58 32.5-32.5v-135.209l8.24 8.24c2.411 2.412 5.611 3.689 8.877 3.689 1.622 0 3.259-.315 4.824-.963 4.715-1.953 7.761-6.512 7.761-11.615v-18.75h15.862c9.649 0 17.5-7.851 17.5-17.5v-131.338c.001-9.649-7.85-17.5-17.499-17.5z"/><path d="m414 46.062h-119.309c-4.142 0-7.5 3.358-7.5 7.5s3.358 7.5 7.5 7.5h119.309c4.142 0 7.5-3.358 7.5-7.5s-3.358-7.5-7.5-7.5z"/><path d="m456.001 61.062c4.142 0 7.5-3.358 7.5-7.5s-3.358-7.5-7.5-7.5h-20.001c-4.142 0-7.5 3.358-7.5 7.5s3.358 7.5 7.5 7.5z"/><path d="m294.691 88.924h37.309c4.142 0 7.5-3.358 7.5-7.5s-3.358-7.5-7.5-7.5h-37.309c-4.142 0-7.5 3.358-7.5 7.5s3.358 7.5 7.5 7.5z"/><path d="m346.5 81.424c0 4.142 3.358 7.5 7.5 7.5h102.001c4.142 0 7.5-3.358 7.5-7.5s-3.358-7.5-7.5-7.5h-102.001c-4.142 0-7.5 3.358-7.5 7.5z"/><path d="m294.691 116.787h112.186c4.142 0 7.5-3.358 7.5-7.5s-3.358-7.5-7.5-7.5h-112.186c-4.142 0-7.5 3.358-7.5 7.5s3.358 7.5 7.5 7.5z"/></g></g></svg>