<?xml version="1.0" encoding="UTF-8" standalone="no"?>
<!-- Created with Inkscape (http://www.inkscape.org/) -->

<svg
   version="1.1"
   id="svg1002"
   xml:space="preserve"
   width="682.66669"
   height="682.66669"
   viewBox="0 0 682.66669 682.66669"
   xmlns="http://www.w3.org/2000/svg"
   xmlns:svg="http://www.w3.org/2000/svg"><defs
     id="defs1006"><clipPath
       clipPathUnits="userSpaceOnUse"
       id="clipPath1016"><path
         d="M 0,512 H 512 V 0 H 0 Z"
         id="path1014" /></clipPath></defs><g
     id="g1008"
     transform="matrix(1.3333333,0,0,-1.3333333,0,682.66667)"><g
       id="g1010"><g
         id="g1012"
         clip-path="url(#clipPath1016)"><g
           id="g1018"
           transform="translate(264.189,501.7861)"><path
             d="m 0,0 236.616,-198.591 c 2.33,-1.956 3.675,-4.842 3.675,-7.884 l 0.001,-49.1 c 0,-8.695 -10.113,-13.472 -16.829,-7.951 L -0.101,-79.747 c -4.7,3.864 -11.476,3.864 -16.176,0 l -223.564,-183.779 c -6.716,-5.521 -16.828,-0.744 -16.828,7.951 v 49.1 c 0,3.042 1.345,5.928 3.675,7.884 L -16.378,0 C -11.642,3.975 -4.736,3.975 0,0 Z"
             style="fill:none;stroke:#000000;stroke-width:15;stroke-linecap:round;stroke-linejoin:round;stroke-miterlimit:10;stroke-dasharray:none;stroke-opacity:1"
             id="path1020" /></g><g
           id="g1022"
           transform="translate(61.875,384.8071)"><path
             d="M 0,0 V -38.917 L 60.945,12.235 V 68.949 H 0 V 48.68"
             style="fill:none;stroke:#000000;stroke-width:15;stroke-linecap:round;stroke-linejoin:round;stroke-miterlimit:10;stroke-dasharray:none;stroke-opacity:1"
             id="path1024" /></g><g
           id="g1026"
           transform="translate(55.3306,453.7559)"><path
             d="m 0,0 h 74.034 c 2.488,0 4.506,2.018 4.506,4.506 v 24.952 c 0,2.488 -2.018,4.505 -4.506,4.505 H 0 c -2.488,0 -4.506,-2.017 -4.506,-4.505 V 4.506 C -4.506,2.018 -2.488,0 0,0 Z"
             style="fill:none;stroke:#000000;stroke-width:15;stroke-linecap:round;stroke-linejoin:round;stroke-miterlimit:10;stroke-dasharray:none;stroke-opacity:1"
             id="path1028" /></g><g
           id="g1030"
           transform="translate(43.7397,53.5137)"><path
             d="m 0,0 v 200.687 l 204.172,167.839 c 4.709,3.871 11.467,3.871 16.177,0 L 424.521,200.687 v -96.094"
             style="fill:none;stroke:#000000;stroke-width:15;stroke-linecap:round;stroke-linejoin:round;stroke-miterlimit:10;stroke-dasharray:none;stroke-opacity:1"
             id="path1032" /></g><g
           id="g1034"
           transform="translate(468.2603,7.2373)"><path
             d="M 0,0 H -212.26 -424.521"
             style="fill:none;stroke:#000000;stroke-width:15;stroke-linecap:round;stroke-linejoin:round;stroke-miterlimit:10;stroke-dasharray:none;stroke-opacity:1"
             id="path1036" /></g><g
           id="g1038"
           transform="translate(468.2603,123.1479)"><path
             d="M 0,0 V -68.241"
             style="fill:none;stroke:#000000;stroke-width:15;stroke-linecap:round;stroke-linejoin:round;stroke-miterlimit:10;stroke-dasharray:none;stroke-opacity:1"
             id="path1040" /></g><g
           id="g1042"
           transform="translate(334.6748,233.4834)"><path
             d="m 0,0 c -14.146,21.027 -44.182,24.611 -62.919,7.548 -11.785,-10.732 -15.757,-25.135 -15.757,-25.135 0,0 -3.973,14.403 -15.758,25.135 -18.737,17.063 -48.773,13.479 -62.919,-7.548 -4.404,-6.547 -7.457,-15.271 -7.242,-26.845 0.233,-12.571 4.357,-24.752 11.351,-35.201 10.384,-15.514 33.044,-39.574 68.73,-59.411 3.623,-2.013 8.052,-2.013 11.675,0 35.686,19.837 58.346,43.897 68.73,59.411 6.994,10.449 11.118,22.63 11.351,35.201 C 7.457,-15.271 4.404,-6.547 0,0 Z"
             style="fill:none;stroke:#000000;stroke-width:15;stroke-linecap:round;stroke-linejoin:round;stroke-miterlimit:10;stroke-dasharray:none;stroke-opacity:1"
             id="path1044" /></g><g
           id="g1046"
           transform="translate(76.6313,7.2388)"><path
             d="m 0,0 150.154,-0.006 c 0,30.868 -25.023,55.892 -55.891,55.892 -3.398,0 -6.72,-0.32 -9.95,-0.901 -8.147,17.193 -25.653,29.086 -45.942,29.086 -23.564,0 -43.382,-16.039 -49.132,-37.795"
             style="fill:none;stroke:#000000;stroke-width:15;stroke-linecap:round;stroke-linejoin:round;stroke-miterlimit:10;stroke-dasharray:none;stroke-opacity:1"
             id="path1048" /></g><g
           id="g1050"
           transform="translate(7.5195,7.2397)"><path
             d="M 0,0 C 0,26.325 21.341,47.667 47.667,47.667 73.993,47.667 95.333,26.325 95.333,0 Z"
             style="fill:none;stroke:#000000;stroke-width:15;stroke-linecap:round;stroke-linejoin:round;stroke-miterlimit:10;stroke-dasharray:none;stroke-opacity:1"
             id="path1052" /></g><g
           id="g1054"
           transform="translate(409.147,7.2378)"><path
             d="m 0,0 -123.933,-0.005 c 0,30.868 25.024,55.892 55.892,55.892 3.398,0 6.719,-0.32 9.95,-0.901 8.147,17.193 25.653,29.086 45.942,29.086 23.504,0 43.282,-15.958 49.088,-37.631"
             style="fill:none;stroke:#000000;stroke-width:15;stroke-linecap:round;stroke-linejoin:round;stroke-miterlimit:10;stroke-dasharray:none;stroke-opacity:1"
             id="path1056" /></g><g
           id="g1058"
           transform="translate(504.4805,7.2397)"><path
             d="M 0,0 C 0,26.325 -21.341,47.667 -47.667,47.667 -73.993,47.667 -95.333,26.325 -95.333,0 Z"
             style="fill:none;stroke:#000000;stroke-width:15;stroke-linecap:round;stroke-linejoin:round;stroke-miterlimit:10;stroke-dasharray:none;stroke-opacity:1"
             id="path1060" /></g></g></g></g></svg>
