<svg id="Capa_1" enable-background="new 0 0 512 512" height="512" viewBox="0 0 512 512" width="512" xmlns="http://www.w3.org/2000/svg"><g><path d="m337.719 34.27v-2.827c0-17.338-14.105-31.443-31.443-31.443s-31.443 14.105-31.443 31.443v2.757h-50.276v-2.757c0-17.338-14.105-31.443-31.443-31.443s-31.443 14.105-31.443 31.443v2.757h-50.281v-2.76c0-8.4-3.27-16.296-9.207-22.234-5.937-5.936-13.833-9.206-22.233-9.206-17.336 0-31.44 14.104-31.44 31.44v2.83c-23.357 1.272-41.97 20.671-41.97 44.34v388.98c0 24.488 19.922 44.41 44.41 44.41h284.33c24.488 0 44.41-19.922 44.41-44.41v-388.98c0-23.669-18.614-43.069-41.971-44.34zm-47.886-2.827c0-9.066 7.376-16.443 16.443-16.443s16.443 7.376 16.443 16.443v41.183c0 9.066-7.376 16.443-16.443 16.443s-16.443-7.376-16.443-16.443zm-113.162 0c0-9.066 7.376-16.443 16.443-16.443s16.443 7.376 16.443 16.443v41.183c0 9.066-7.376 16.443-16.443 16.443s-16.443-7.376-16.443-16.443zm188.019 436.147c0 16.217-13.193 29.41-29.41 29.41h-284.33c-16.217 0-29.41-13.193-29.41-29.41v-388.98c0-15.394 11.891-28.055 26.97-29.301v5.821c0 4.142 3.358 7.5 7.5 7.5s7.5-3.358 7.5-7.5v-23.69c0-9.065 7.375-16.44 16.44-16.44 4.393 0 8.522 1.709 11.626 4.813s4.813 7.233 4.813 11.627v41.19c0 9.065-7.375 16.44-16.44 16.44-4.624 0-8.9-1.865-12.042-5.251-2.816-3.036-7.562-3.214-10.599-.397s-3.214 7.562-.397 10.599c5.925 6.386 14.322 10.049 23.038 10.049 17.336 0 31.44-14.104 31.44-31.44v-23.43h50.281v23.425c0 17.338 14.105 31.443 31.443 31.443s31.443-14.105 31.443-31.443v-23.425h50.276v23.425c0 17.338 14.105 31.443 31.443 31.443s31.443-14.105 31.443-31.443v-23.316c15.079 1.245 26.971 13.906 26.971 29.301v388.98z"/><path d="m51.451 236.746h283.325c4.142 0 7.5-3.358 7.5-7.5s-3.358-7.5-7.5-7.5h-283.325c-4.142 0-7.5 3.358-7.5 7.5s3.358 7.5 7.5 7.5z"/><path d="m51.451 325.534h283.325c4.142 0 7.5-3.358 7.5-7.5s-3.358-7.5-7.5-7.5h-283.325c-4.142 0-7.5 3.358-7.5 7.5s3.358 7.5 7.5 7.5z"/><path d="m334.78 399.32h-173.02c-4.142 0-7.5 3.358-7.5 7.5s3.358 7.5 7.5 7.5h173.02c4.142 0 7.5-3.358 7.5-7.5s-3.358-7.5-7.5-7.5z"/><path d="m126.82 399.32h-75.37c-4.142 0-7.5 3.358-7.5 7.5s3.358 7.5 7.5 7.5h75.37c4.142 0 7.5-3.358 7.5-7.5s-3.358-7.5-7.5-7.5z"/><path d="m89.361 210.13c10.454 0 19.802-4.822 25.938-12.358 6.136 7.536 15.484 12.358 25.938 12.358s19.802-4.822 25.938-12.358c6.136 7.536 15.484 12.358 25.938 12.358s19.802-4.822 25.938-12.358c6.136 7.536 15.485 12.358 25.938 12.358s19.802-4.822 25.938-12.358c6.136 7.536 15.485 12.358 25.938 12.358 18.438 0 33.438-15 33.438-33.438 0-4.142-3.358-7.5-7.5-7.5s-7.5 3.358-7.5 7.5c0 10.167-8.271 18.438-18.438 18.438s-18.438-8.271-18.438-18.438c0-4.142-3.358-7.5-7.5-7.5s-7.5 3.358-7.5 7.5c0 10.167-8.271 18.438-18.438 18.438s-18.438-8.271-18.438-18.438c0-4.142-3.358-7.5-7.5-7.5s-7.5 3.358-7.5 7.5c0 10.167-8.271 18.438-18.438 18.438s-18.438-8.271-18.438-18.438c0-4.142-3.358-7.5-7.5-7.5s-7.5 3.358-7.5 7.5c0 10.167-8.271 18.438-18.438 18.438s-18.438-8.271-18.438-18.438c0-4.142-3.358-7.5-7.5-7.5s-7.5 3.358-7.5 7.5c0 10.167-8.271 18.438-18.438 18.438s-18.438-8.271-18.438-18.438c0-4.142-3.358-7.5-7.5-7.5s-7.5 3.358-7.5 7.5c0 18.438 15 33.438 33.438 33.438z"/><path d="m315.305 267.394c0 10.167-8.271 18.438-18.438 18.438s-18.438-8.271-18.438-18.438c0-4.142-3.358-7.5-7.5-7.5s-7.5 3.358-7.5 7.5c0 10.167-8.271 18.438-18.438 18.438s-18.438-8.271-18.438-18.438c0-4.142-3.358-7.5-7.5-7.5s-7.5 3.358-7.5 7.5c0 10.167-8.271 18.438-18.438 18.438s-18.438-8.271-18.438-18.438c0-4.142-3.358-7.5-7.5-7.5s-7.5 3.358-7.5 7.5c0 10.167-8.271 18.438-18.438 18.438s-18.438-8.271-18.438-18.438c0-4.142-3.358-7.5-7.5-7.5s-7.5 3.358-7.5 7.5c0 10.167-8.271 18.438-18.438 18.438s-18.438-8.271-18.438-18.438c0-4.142-3.358-7.5-7.5-7.5s-7.5 3.358-7.5 7.5c0 18.438 15 33.438 33.438 33.438 10.454 0 19.802-4.822 25.938-12.358 6.136 7.536 15.484 12.358 25.938 12.358s19.802-4.822 25.938-12.358c6.136 7.536 15.484 12.358 25.938 12.358s19.802-4.822 25.938-12.358c6.136 7.536 15.485 12.358 25.938 12.358s19.802-4.822 25.938-12.358c6.136 7.536 15.485 12.358 25.938 12.358 18.438 0 33.438-15 33.438-33.438 0-4.142-3.358-7.5-7.5-7.5s-7.5 3.358-7.5 7.5z"/><path d="m167.176 379.176c6.136 7.536 15.484 12.358 25.938 12.358 4.142 0 7.5-3.358 7.5-7.5s-3.358-7.5-7.5-7.5c-10.167 0-18.438-8.271-18.438-18.438 0-4.142-3.358-7.5-7.5-7.5s-7.5 3.358-7.5 7.5c0 10.167-8.271 18.438-18.438 18.438s-18.438-8.271-18.438-18.438c0-4.142-3.358-7.5-7.5-7.5s-7.5 3.358-7.5 7.5c0 10.167-8.271 18.438-18.438 18.438s-18.438-8.271-18.438-18.438c0-4.142-3.358-7.5-7.5-7.5s-7.5 3.358-7.5 7.5c0 18.438 15 33.438 33.438 33.438 10.454 0 19.802-4.822 25.938-12.358 6.136 7.536 15.484 12.358 25.938 12.358s19.802-4.822 25.938-12.358z"/><path d="m482.98 91.513v-37.753c0-13.537-11.018-24.55-24.56-24.55h-15.77c-13.542 0-24.56 11.013-24.56 24.55v37.753c-12.768 2.33-22.48 13.527-22.48 26.958v212.09c0 37.416 10.979 73.594 31.749 104.688l8.427 21.418c2.401 6.104 8.191 10.047 14.75 10.047s12.348-3.944 14.749-10.047l8.416-21.39c12.543-18.779 21.536-39.438 26.72-61.425.951-4.032-1.547-8.07-5.579-9.021-4.029-.952-8.071 1.547-9.021 5.579-4.526 19.198-12.201 37.297-22.833 53.861h-24.896c-17.992-28.016-27.481-60.329-27.481-93.71v-153.666h79.85v153.665c0 2.392-.043 4.559-.133 6.625-.179 4.138 3.03 7.638 7.168 7.818 4.151.164 7.638-3.031 7.818-7.168.099-2.285.147-4.665.147-7.274v-212.091c-.001-13.43-9.713-24.627-22.481-26.957zm-32.445 360.2c-.579 0-.712-.338-.792-.54l-4.684-11.904h10.949l-4.684 11.904c-.077.203-.21.54-.789.54zm-7.885-407.503h15.77c5.271 0 9.56 4.284 9.56 9.55v37.3h-34.89v-37.3c0-5.266 4.288-9.55 9.56-9.55zm-19.63 61.85h55.03c6.843 0 12.41 5.567 12.41 12.41v4.517h-79.85v-4.517c0-6.843 5.567-12.41 12.41-12.41zm-12.41 55.835v-23.907h79.85v23.907z"/></g></svg>