<?xml version="1.0" encoding="UTF-8" standalone="no"?>
<!-- Created with Inkscape (http://www.inkscape.org/) -->

<svg
   version="1.1"
   id="svg915"
   xml:space="preserve"
   viewBox="0 0 682.66669 682.66669"
   xmlns="http://www.w3.org/2000/svg"
   xmlns:svg="http://www.w3.org/2000/svg"><defs
     id="defs919"><clipPath
       clipPathUnits="userSpaceOnUse"
       id="clipPath929"><path
         d="M 0,512 H 512 V 0 H 0 Z"
         id="path927" /></clipPath></defs><g
     id="g921"
     transform="matrix(1.3333333,0,0,-1.3333333,0,682.66667)"><g
       id="g923"><g
         id="g925"
         clip-path="url(#clipPath929)"><g
           id="g931"
           transform="translate(137.6855,62.9927)"><path
             d="m 0,0 h 321.739 c 13.904,0 25.175,11.271 25.175,25.175 0,13.904 -11.271,25.175 -25.175,25.175 H -85.11 c -13.904,0 -25.175,-11.271 -25.175,-25.175 C -110.285,11.271 -99.014,0 -85.11,0 h 49.798"
             style="fill:none;stroke:#000000;stroke-width:15;stroke-linecap:round;stroke-linejoin:round;stroke-miterlimit:10;stroke-dasharray:none;stroke-opacity:1"
             id="path933" /></g><g
           id="g935"
           transform="translate(337.4512,424.604)"><path
             d="m 0,0 c -22.594,17.328 -50.851,27.604 -81.451,27.604 -72.498,0 -131.837,-57.682 -133.89,-130.15 l -3.106,-109.7 c -1.038,-36.63 -19.632,-70.525 -49.968,-91.082 l -11.707,-7.934"
             style="fill:none;stroke:#000000;stroke-width:15;stroke-linecap:round;stroke-linejoin:round;stroke-miterlimit:10;stroke-dasharray:none;stroke-opacity:1"
             id="path937" /></g><g
           id="g939"
           transform="translate(454.6709,113.3423)"><path
             d="m 0,0 -11.707,7.934 c -30.336,20.557 -48.93,54.452 -49.968,91.082 l -3.106,109.699 c -0.823,29.06 -10.859,55.743 -27.26,77.282"
             style="fill:none;stroke:#000000;stroke-width:15;stroke-linecap:round;stroke-linejoin:round;stroke-miterlimit:10;stroke-dasharray:none;stroke-opacity:1"
             id="path941" /></g><g
           id="g943"
           transform="translate(190.75,62.9927)"><path
             d="m 0,0 c 5.081,-31.462 32.354,-55.493 65.25,-55.493 32.896,0 60.169,24.031 65.25,55.493"
             style="fill:none;stroke:#000000;stroke-width:15;stroke-linecap:round;stroke-linejoin:round;stroke-miterlimit:10;stroke-dasharray:none;stroke-opacity:1"
             id="path945" /></g><g
           id="g947"
           transform="translate(256,452.2085)"><path
             d="m 0,0 c 12.532,0 24.67,-1.726 36.188,-4.952 2.478,5.209 3.869,11.035 3.869,17.187 0,22.123 -17.934,40.057 -40.057,40.057 -22.123,0 -40.057,-17.934 -40.057,-40.057 0,-6.152 1.391,-11.978 3.869,-17.187"
             style="fill:none;stroke:#000000;stroke-width:15;stroke-linecap:round;stroke-linejoin:round;stroke-miterlimit:10;stroke-dasharray:none;stroke-opacity:1"
             id="path949" /></g></g></g></g></svg>
