<svg id="Layer_2" height="512" viewBox="0 0 16 16" width="512" xmlns="http://www.w3.org/2000/svg" data-name="Layer 2"><path d="m.56 13.2363a.5.5 0 0 0 .44.2637h4.5505a2.5 2.5 0 0 0 4.899 0h4.5505a.5.5 0 0 0 .416-.7773 8.3979 8.3979 0 0 1 -1.416-4.6768v-1.5459a6 6 0 0 0 -12 0v1.5459a8.3979 8.3979 0 0 1 -1.416 4.6768.4978.4978 0 0 0 -.024.5136zm7.44 1.2637a1.4977 1.4977 0 0 1 -1.4079-1h2.8158a1.4977 1.4977 0 0 1 -1.4079 1zm-5-8a5 5 0 0 1 10 0v1.5459c0 .1526.0206.3024.0278.4541h-10.0556c.0072-.1517.0278-.3015.0278-.4541zm-.1255 3h10.251a9.365 9.365 0 0 0 .9917 3h-12.2344a9.365 9.365 0 0 0 .9917-3z"/></svg>