<?xml version="1.0" encoding="UTF-8" standalone="no"?>
<!-- Created with Inkscape (http://www.inkscape.org/) -->

<svg
   version="1.1"
   id="svg2319"
   xml:space="preserve"
   width="682.66669"
   height="682.66669"
   viewBox="0 0 682.66669 682.66669"
   xmlns="http://www.w3.org/2000/svg"
   xmlns:svg="http://www.w3.org/2000/svg"><defs
     id="defs2323"><clipPath
       clipPathUnits="userSpaceOnUse"
       id="clipPath2333"><path
         d="M 0,512 H 512 V 0 H 0 Z"
         id="path2331" /></clipPath></defs><g
     id="g2325"
     transform="matrix(1.3333333,0,0,-1.3333333,0,682.66667)"><g
       id="g2327"><g
         id="g2329"
         clip-path="url(#clipPath2333)"><g
           id="g2335"
           transform="translate(474.5,7.5)"><path
             d="m 0,0 h -437 c -16.568,0 -30,13.432 -30,30 v 437 c 0,16.568 13.432,30 30,30 H 0 c 16.568,0 30,-13.432 30,-30 V 30 C 30,13.432 16.568,0 0,0 Z"
             style="fill:none;stroke:#000000;stroke-width:15;stroke-linecap:round;stroke-linejoin:round;stroke-miterlimit:10;stroke-dasharray:none;stroke-opacity:1"
             id="path2337" /></g><g
           id="g2339"
           transform="translate(7.5,444.5)"><path
             d="M 0,0 H 497"
             style="fill:none;stroke:#000000;stroke-width:15;stroke-linecap:round;stroke-linejoin:round;stroke-miterlimit:10;stroke-dasharray:none;stroke-opacity:1"
             id="path2341" /></g><g
           id="g2343"
           transform="translate(49.8574,474.5)"><path
             d="m 0,0 c 0,-4.142 -3.358,-7.5 -7.5,-7.5 -4.142,0 -7.5,3.358 -7.5,7.5 0,4.142 3.358,7.5 7.5,7.5 C -3.358,7.5 0,4.142 0,0"
             style="fill:#000000;fill-opacity:1;fill-rule:nonzero;stroke:none"
             id="path2345" /></g><g
           id="g2347"
           transform="translate(79.8574,474.5)"><path
             d="m 0,0 c 0,-4.142 -3.358,-7.5 -7.5,-7.5 -4.142,0 -7.5,3.358 -7.5,7.5 0,4.142 3.358,7.5 7.5,7.5 C -3.358,7.5 0,4.142 0,0"
             style="fill:#000000;fill-opacity:1;fill-rule:nonzero;stroke:none"
             id="path2349" /></g><g
           id="g2351"
           transform="translate(109.8574,474.5)"><path
             d="m 0,0 c 0,-4.142 -3.358,-7.5 -7.5,-7.5 -4.142,0 -7.5,3.358 -7.5,7.5 0,4.142 3.358,7.5 7.5,7.5 C -3.358,7.5 0,4.142 0,0"
             style="fill:#000000;fill-opacity:1;fill-rule:nonzero;stroke:none"
             id="path2353" /></g><g
           id="g2355"
           transform="translate(203.5332,405.0327)"><path
             d="m 0,0 c 16.376,5.928 34.044,9.16 52.467,9.16 85.126,0 154.134,-69.009 154.134,-154.135 0,-85.125 -69.008,-154.133 -154.134,-154.133 -85.126,0 -154.134,69.008 -154.134,154.133 0,54.05 27.819,101.6 69.92,129.117"
             style="fill:none;stroke:#000000;stroke-width:15;stroke-linecap:round;stroke-linejoin:round;stroke-miterlimit:10;stroke-dasharray:none;stroke-opacity:1"
             id="path2357" /></g><g
           id="g2359"
           transform="translate(278.6499,212.8101)"><path
             d="m 0,0 v -10.88 c 0,-7.2 5.04,-13.41 12.08,-14.9 l 33.07,-7 c 17.77,-3.76 31.29,-17.55 35.13,-34.69 -27.29,-24.5 -63.37,-39.42 -102.93,-39.42 -39.56,0 -75.64,14.92 -102.93,39.42 3.84,17.14 17.36,30.93 35.13,34.69 l 33.07,7 c 7.04,1.49 12.08,7.7 12.08,14.9 V 0"
             style="fill:none;stroke:#000000;stroke-width:15;stroke-linecap:round;stroke-linejoin:round;stroke-miterlimit:10;stroke-dasharray:none;stroke-opacity:1"
             id="path2361" /></g><g
           id="g2363"
           transform="translate(215.8384,185.8789)"><path
             d="m 0,0 c 8.609,-13.027 23.378,-21.625 40.162,-21.625 16.783,0 31.552,8.598 40.161,21.625"
             style="fill:none;stroke:#000000;stroke-width:15;stroke-linecap:round;stroke-linejoin:round;stroke-miterlimit:10;stroke-dasharray:none;stroke-opacity:1"
             id="path2365" /></g><g
           id="g2367"
           transform="translate(198.1289,286.6304)"><path
             d="m 0,0 v 66.425 c 0,12.619 10.229,22.849 22.848,22.849 h 70.048 c 12.617,0 22.845,-10.228 22.845,-22.844 V 0"
             style="fill:none;stroke:#000000;stroke-width:15;stroke-linecap:round;stroke-linejoin:round;stroke-miterlimit:10;stroke-dasharray:none;stroke-opacity:1"
             id="path2369" /></g><g
           id="g2371"
           transform="translate(313.8696,303.4331)"><path
             d="m 0,0 c -4.953,1.428 -13.101,4.46 -21.322,11.11 -7.215,5.836 -11.751,12.245 -14.472,16.965 -0.827,1.434 -2.748,1.758 -3.991,0.67 C -45.26,23.948 -52.134,18.823 -60.541,14.235 -82.521,2.237 -103.495,0.169 -115.741,0 v -37.084 c 0,-32.123 25.909,-58.164 57.87,-58.164 h 0.001 c 31.961,0 57.87,26.041 57.87,58.164 z"
             style="fill:none;stroke:#000000;stroke-width:15;stroke-linecap:round;stroke-linejoin:round;stroke-miterlimit:10;stroke-dasharray:none;stroke-opacity:1"
             id="path2373" /></g><g
           id="g2375"
           transform="translate(228.0781,286.5264)"><path
             d="M 0,0 V -11.225"
             style="fill:none;stroke:#000000;stroke-width:15;stroke-linecap:round;stroke-linejoin:round;stroke-miterlimit:10;stroke-dasharray:none;stroke-opacity:1"
             id="path2377" /></g><g
           id="g2379"
           transform="translate(283.9204,286.5264)"><path
             d="M 0,0 V -11.225"
             style="fill:none;stroke:#000000;stroke-width:15;stroke-linecap:round;stroke-linejoin:round;stroke-miterlimit:10;stroke-dasharray:none;stroke-opacity:1"
             id="path2381" /></g><g
           id="g2383"
           transform="translate(244.8306,236.7285)"><path
             d="M 0,0 C 1.828,-1.007 5.703,-2.823 10.926,-2.878 16.424,-2.936 20.502,-1.011 22.337,0"
             style="fill:none;stroke:#000000;stroke-width:15;stroke-linecap:round;stroke-linejoin:round;stroke-miterlimit:10;stroke-dasharray:none;stroke-opacity:1"
             id="path2385" /></g><g
           id="g2387"
           transform="translate(320.9434,275.9766)"><path
             d="M 0,0 H -7.074 V 27.457 H 0 c 7.563,0 13.694,-6.131 13.694,-13.694 V 13.694 C 13.694,6.131 7.563,0 0,0 Z"
             style="fill:none;stroke:#000000;stroke-width:15;stroke-linecap:round;stroke-linejoin:round;stroke-miterlimit:10;stroke-dasharray:none;stroke-opacity:1"
             id="path2389" /></g><g
           id="g2391"
           transform="translate(191.0552,275.9766)"><path
             d="M 0,0 H 7.074 V 27.457 H 0 c -7.563,0 -13.694,-6.131 -13.694,-13.694 V 13.694 C -13.694,6.131 -7.563,0 0,0 Z"
             style="fill:none;stroke:#000000;stroke-width:15;stroke-linecap:round;stroke-linejoin:round;stroke-miterlimit:10;stroke-dasharray:none;stroke-opacity:1"
             id="path2393" /></g><g
           id="g2395"
           transform="translate(76.1304,73.3726)"><path
             d="m 0,0 c 0,-4.142 -3.358,-7.5 -7.5,-7.5 -4.143,0 -7.5,3.358 -7.5,7.5 0,4.142 3.357,7.5 7.5,7.5 C -3.358,7.5 0,4.142 0,0"
             style="fill:#000000;fill-opacity:1;fill-rule:nonzero;stroke:none"
             id="path2397" /></g><g
           id="g2399"
           transform="translate(351.1309,73.3726)"><path
             d="M 0,0 H 92.239"
             style="fill:none;stroke:#000000;stroke-width:15;stroke-linecap:round;stroke-linejoin:round;stroke-miterlimit:10;stroke-dasharray:none;stroke-opacity:1"
             id="path2401" /></g><g
           id="g2403"
           transform="translate(110.2871,73.3726)"><path
             d="M 0,0 H 205.844"
             style="fill:none;stroke:#000000;stroke-width:15;stroke-linecap:round;stroke-linejoin:round;stroke-miterlimit:10;stroke-dasharray:none;stroke-opacity:1"
             id="path2405" /></g><g
           id="g2407"
           transform="translate(76.1304,37.5)"><path
             d="m 0,0 c 0,-4.142 -3.358,-7.5 -7.5,-7.5 -4.143,0 -7.5,3.358 -7.5,7.5 0,4.142 3.357,7.5 7.5,7.5 C -3.358,7.5 0,4.142 0,0"
             style="fill:#000000;fill-opacity:1;fill-rule:nonzero;stroke:none"
             id="path2409" /></g><g
           id="g2411"
           transform="translate(110.2871,37.5)"><path
             d="M 0,0 H 333.083"
             style="fill:none;stroke:#000000;stroke-width:15;stroke-linecap:round;stroke-linejoin:round;stroke-miterlimit:10;stroke-dasharray:none;stroke-opacity:1"
             id="path2413" /></g></g></g></g></svg>
