<?xml version="1.0" encoding="UTF-8"?>
<svg xmlns="http://www.w3.org/2000/svg" xmlns:xlink="http://www.w3.org/1999/xlink" version="1.1" id="Capa_1" x="0px" y="0px" viewBox="0 0 512 512" style="enable-background:new 0 0 512 512;" xml:space="preserve" width="512" height="512">
<g>
	
		<line style="fill:none;stroke:#000000;stroke-width:15;stroke-linecap:round;stroke-linejoin:round;stroke-miterlimit:10;" x1="418.318" y1="110.982" x2="454.591" y2="110.982"/>
	
		<line style="fill:none;stroke:#000000;stroke-width:15;stroke-linecap:round;stroke-linejoin:round;stroke-miterlimit:10;" x1="418.318" y1="171.754" x2="454.591" y2="171.754"/>
	<path style="fill:none;stroke:#000000;stroke-width:15;stroke-linecap:round;stroke-linejoin:round;stroke-miterlimit:10;" d="&#10;&#9;&#9;M418.318,50.211h18.137c9.966,0,18.137,8.149,18.137,18.09v146.164c0,9.941-8.17,18.09-18.137,18.09h-18.137V50.211z"/>
	<path style="fill:none;stroke:#000000;stroke-width:15;stroke-linecap:round;stroke-linejoin:round;stroke-miterlimit:10;" d="&#10;&#9;&#9;M107.705,452.002v47.392c0,4.392,3.332,6.271,7.417,4.364l24.771-11.617c2.81-1.329,5.186-1.329,7.996,0l24.8,11.617&#10;&#9;&#9;c4.056,1.907,7.417,0.029,7.417-4.364v-47.392"/>
	<path style="fill:none;stroke:#000000;stroke-width:15;stroke-linecap:round;stroke-linejoin:round;stroke-miterlimit:10;" d="&#10;&#9;&#9;M172.806,200.189v-38.087c-51.571-30.429-4.78-99.234,47.341-73.718c8.083-13.293,24.395-22.222,41.575-22.222&#10;&#9;&#9;c17.181,0,33.492,8.929,41.575,22.222c52.121-25.517,98.912,43.289,47.341,73.718v38.087"/>
	
		<rect x="172.806" y="200.189" style="fill:none;stroke:#000000;stroke-width:15;stroke-linecap:round;stroke-linejoin:round;stroke-miterlimit:10;" width="177.833" height="36.555"/>
	
		<line style="fill:none;stroke:#000000;stroke-width:15;stroke-linecap:round;stroke-linejoin:round;stroke-miterlimit:10;" x1="261.722" y1="161.813" x2="261.722" y2="200.189"/>
	
		<line style="fill:none;stroke:#000000;stroke-width:15;stroke-linecap:round;stroke-linejoin:round;stroke-miterlimit:10;" x1="305.673" y1="166.061" x2="292.172" y2="200.189"/>
	
		<line style="fill:none;stroke:#000000;stroke-width:15;stroke-linecap:round;stroke-linejoin:round;stroke-miterlimit:10;" x1="217.742" y1="166.061" x2="231.243" y2="200.189"/>
	
		<line style="fill:none;stroke:#000000;stroke-width:15;stroke-linecap:round;stroke-linejoin:round;stroke-miterlimit:10;" x1="105.097" y1="7.5" x2="105.097" y2="452.002"/>
	
		<polyline style="fill:none;stroke:#000000;stroke-width:15;stroke-linecap:round;stroke-linejoin:round;stroke-miterlimit:10;" points="&#10;&#9;&#9;277.367,305.492 418.318,305.492 418.318,379.903 105.097,379.903 105.097,305.492 239.413,305.492 &#9;"/>
	<path style="fill:none;stroke:#000000;stroke-width:15;stroke-linecap:round;stroke-linejoin:round;stroke-miterlimit:10;" d="&#10;&#9;&#9;M57.409,221.602V30.242C57.409,17.73,67.665,7.5,80.21,7.5h315.278c12.574,0,22.83,10.23,22.83,22.742v398.988&#10;&#9;&#9;c0,12.513-10.256,22.771-22.83,22.771H80.21c-12.545,0-22.801-10.259-22.801-22.771V259.429"/>
</g>















</svg>
