<?xml version="1.0" encoding="UTF-8" standalone="no"?>
<!-- Created with Inkscape (http://www.inkscape.org/) -->

<svg
   version="1.1"
   id="svg183"
   xml:space="preserve"
   width="682.66669"
   height="682.66669"
   viewBox="0 0 682.66669 682.66669"
   xmlns="http://www.w3.org/2000/svg"
   xmlns:svg="http://www.w3.org/2000/svg"><defs
     id="defs187"><clipPath
       clipPathUnits="userSpaceOnUse"
       id="clipPath197"><path
         d="M 0,512 H 512 V 0 H 0 Z"
         id="path195" /></clipPath></defs><g
     id="g189"
     transform="matrix(1.3333333,0,0,-1.3333333,0,682.66667)"><g
       id="g191"><g
         id="g193"
         clip-path="url(#clipPath197)"><g
           id="g199"
           transform="translate(231.9517,119.7258)"><path
             d="m 0,0 h -160.323 c -4.427,0 -8.016,3.589 -8.016,8.016 v 368.742 c 0,4.427 3.589,8.016 8.016,8.016 H 46.152 c 6.378,0 12.494,-2.534 17.004,-7.044 l 66.074,-66.074 c 4.511,-4.51 7.044,-10.626 7.044,-17.004 V 128.258"
             style="fill:none;stroke:#000000;stroke-width:15;stroke-linecap:round;stroke-linejoin:round;stroke-miterlimit:10;stroke-dasharray:none;stroke-opacity:1"
             id="path201" /></g><g
           id="g203"
           transform="translate(288.0645,167.8225)"><path
             d="M 0,0 H 160.323 L 139.31,-84.05 c -1.784,-7.137 -8.197,-12.143 -15.553,-12.143 H 4.501 c -7.356,0 -13.769,5.006 -15.553,12.143 L -37.044,19.921 c -1.785,7.137 -8.198,12.144 -15.554,12.144 h -19.547"
             style="fill:none;stroke:#000000;stroke-width:15;stroke-linecap:round;stroke-linejoin:round;stroke-miterlimit:10;stroke-dasharray:none;stroke-opacity:1"
             id="path205" /></g><g
           id="g207"
           transform="translate(424.3389,39.5645)"><path
             d="m 0,0 h -152.307 l 16.033,32.065"
             style="fill:none;stroke:#000000;stroke-width:15;stroke-linecap:round;stroke-linejoin:round;stroke-miterlimit:10;stroke-dasharray:none;stroke-opacity:1"
             id="path209" /></g><g
           id="g211"
           transform="translate(440.3711,23.5322)"><path
             d="m 0,0 c 0,8.854 -7.178,16.032 -16.032,16.032 -8.855,0 -16.032,-7.178 -16.032,-16.032 0,-8.854 7.177,-16.032 16.032,-16.032 C -7.178,-16.032 0,-8.854 0,0 Z"
             style="fill:none;stroke:#000000;stroke-width:15;stroke-linecap:round;stroke-linejoin:round;stroke-miterlimit:10;stroke-dasharray:none;stroke-opacity:1"
             id="path213" /></g><g
           id="g215"
           transform="translate(288.0645,23.5322)"><path
             d="m 0,0 c 0,8.854 -7.178,16.032 -16.032,16.032 -8.855,0 -16.032,-7.178 -16.032,-16.032 0,-8.854 7.177,-16.032 16.032,-16.032 C -7.178,-16.032 0,-8.854 0,0 Z"
             style="fill:none;stroke:#000000;stroke-width:15;stroke-linecap:round;stroke-linejoin:round;stroke-miterlimit:10;stroke-dasharray:none;stroke-opacity:1"
             id="path217" /></g><g
           id="g219"
           transform="translate(368.2256,167.8225)"><path
             d="M 0,0 V 48.097 H -80.161 V 0"
             style="fill:none;stroke:#000000;stroke-width:15;stroke-linecap:round;stroke-linejoin:round;stroke-miterlimit:10;stroke-dasharray:none;stroke-opacity:1"
             id="path221" /></g><g
           id="g223"
           transform="translate(432.355,167.8225)"><path
             d="M 0,0 V 32.065 H -64.129"
             style="fill:none;stroke:#000000;stroke-width:15;stroke-linecap:round;stroke-linejoin:round;stroke-miterlimit:10;stroke-dasharray:none;stroke-opacity:1"
             id="path225" /></g><g
           id="g227"
           transform="translate(288.0645,499.8364)"><path
             d="M 0,0 V -59.466 C 0,-68.32 7.178,-75.498 16.032,-75.498 H 75.826"
             style="fill:none;stroke:#000000;stroke-width:15;stroke-linecap:round;stroke-linejoin:round;stroke-miterlimit:10;stroke-dasharray:none;stroke-opacity:1"
             id="path229" /></g><g
           id="g231"
           transform="translate(119.7256,416.3225)"><path
             d="M 0,0 16.033,-16.032 48.097,16.032"
             style="fill:none;stroke:#000000;stroke-width:15;stroke-linecap:round;stroke-linejoin:round;stroke-miterlimit:10;stroke-dasharray:none;stroke-opacity:1"
             id="path233" /></g><g
           id="g235"
           transform="translate(215.9194,416.3225)"><path
             d="M 0,0 H 40.081"
             style="fill:none;stroke:#000000;stroke-width:15;stroke-linecap:round;stroke-linejoin:round;stroke-miterlimit:10;stroke-dasharray:none;stroke-opacity:1"
             id="path237" /></g><g
           id="g239"
           transform="translate(119.7256,344.1775)"><path
             d="M 0,0 16.033,-16.032 48.097,16.032"
             style="fill:none;stroke:#000000;stroke-width:15;stroke-linecap:round;stroke-linejoin:round;stroke-miterlimit:10;stroke-dasharray:none;stroke-opacity:1"
             id="path241" /></g><g
           id="g243"
           transform="translate(215.9194,344.1775)"><path
             d="M 0,0 H 104.209"
             style="fill:none;stroke:#000000;stroke-width:15;stroke-linecap:round;stroke-linejoin:round;stroke-miterlimit:10;stroke-dasharray:none;stroke-opacity:1"
             id="path245" /></g><g
           id="g247"
           transform="translate(119.7256,272.0322)"><path
             d="M 0,0 16.033,-16.032 48.097,16.032"
             style="fill:none;stroke:#000000;stroke-width:15;stroke-linecap:round;stroke-linejoin:round;stroke-miterlimit:10;stroke-dasharray:none;stroke-opacity:1"
             id="path249" /></g><g
           id="g251"
           transform="translate(215.9194,272.0322)"><path
             d="M 0,0 H 104.209"
             style="fill:none;stroke:#000000;stroke-width:15;stroke-linecap:round;stroke-linejoin:round;stroke-miterlimit:10;stroke-dasharray:none;stroke-opacity:1"
             id="path253" /></g><g
           id="g255"
           transform="translate(119.7256,199.8872)"><path
             d="M 0,0 16.033,-16.032 48.097,16.032"
             style="fill:none;stroke:#000000;stroke-width:15;stroke-linecap:round;stroke-linejoin:round;stroke-miterlimit:10;stroke-dasharray:none;stroke-opacity:1"
             id="path257" /></g></g></g></g></svg>
